# xmcd
#
# Track frame offsets:
#	150
#	17321
#	44227
#	77921
#
# Disc length: 1645 seconds
#
# Revision: 2
# Processed by: cddbd v1.5.2PL0 Copyright (c) Steve Scherf et al.
# Submitted via: EasyCDDAExtractor 10.2.0.1
#
DISCID=29066b04
DTITLE=Tom Novy feat. Lima - Welcome to the Race CDM
DYEAR=2000
DGENRE=Dance
TTITLE0=Welcome to the Race (Radio Edit)
TTITLE1=Welcome to the Race (Extended)
TTITLE2=Welcome to the Race (Clubmix)
TTITLE3=Welcome to the Race (Tränzmix)
EXTD=
EXTT0=
EXTT1=
EXTT2=
EXTT3=
PLAYORDER=
